/* XPM */
static char *ecadf1a1729d4b56b10a94531a4e2ad1gtcv2tWKUts3MSiT[] = {
/* columns rows colors chars-per-pixel */
"64 64 173 2 ",
"   c #010101",
".  c #080C0A",
"X  c #0F1218",
"o  c #1F1A12",
"O  c #11151D",
"+  c #241711",
"@  c #1F2225",
"#  c #1A2926",
"$  c #1D312D",
"%  c #1D2632",
"&  c #222425",
"*  c #292723",
"=  c #292824",
"-  c #2C3335",
";  c #2E3639",
":  c #2F393C",
">  c #373434",
",  c #45403D",
"<  c #2D3F44",
"1  c #303F44",
"2  c #2D4348",
"3  c #314147",
"4  c #2B4E51",
"5  c #354856",
"6  c #0E556B",
"7  c #0E586E",
"8  c #0F5C74",
"9  c #1A5E73",
"0  c #3F536B",
"q  c #0D6076",
"w  c #0D647A",
"e  c #1F6175",
"r  c #10617A",
"t  c #49484B",
"y  c #756443",
"u  c #5A5967",
"i  c #595A69",
"p  c #415670",
"a  c #58616C",
"s  c #666D79",
"d  c #66707C",
"f  c #954C2E",
"g  c #BB5F39",
"h  c #927C53",
"j  c #82797A",
"k  c #938466",
"l  c #88867C",
"z  c #0D6D82",
"x  c #106680",
"c  c #116984",
"v  c #116D89",
"b  c #0C768B",
"n  c #12718D",
"m  c #137695",
"M  c #137896",
"N  c #137A99",
"B  c #346E80",
"V  c #217088",
"C  c #3A7183",
"Z  c #3B7C8F",
"A  c #147FA0",
"S  c #4E6785",
"D  c #44798B",
"F  c #4B7B8A",
"G  c #527F8E",
"H  c #667381",
"J  c #6B7582",
"K  c #657D8C",
"L  c #6C7A8A",
"P  c #757F8B",
"I  c #6B7F90",
"U  c #0B8094",
"Y  c #0B869B",
"T  c #0B8DA1",
"R  c #1483A5",
"E  c #1587AA",
"W  c #1588AB",
"Q  c #1E8DAE",
"!  c #168EB2",
"~  c #1592B5",
"^  c #1794BA",
"/  c #248DAD",
"(  c #3C8DA6",
")  c #2590B0",
"_  c #3696B4",
"`  c #3E98B3",
"'  c #09A9BC",
"]  c #57998E",
"[  c #4A8699",
"{  c #71818D",
"}  c #6B8395",
"|  c #678D9A",
" . c #69899C",
".. c #758793",
"X. c #7B8592",
"o. c #449BB6",
"O. c #489CB6",
"+. c #569CB3",
"@. c #6C90A1",
"#. c #6798A9",
"$. c #759AAC",
"%. c #4EA2BB",
"&. c #53A3BC",
"*. c #63A0B5",
"=. c #6CBEB1",
"-. c #189CC4",
";. c #0FACC9",
":. c #15A1C5",
">. c #10A9C6",
",. c #1AA3CD",
"<. c #1BAAD5",
"1. c #0EB6D1",
"2. c #0EB9D4",
"3. c #1BB0DD",
"4. c #3FA2C1",
"5. c #3BACD0",
"6. c #1CB3E1",
"7. c #1EBDED",
"8. c #1EBFF0",
"9. c #48AFCF",
"0. c #49BCE0",
"q. c #0CCEE7",
"w. c #1CC0EF",
"e. c #06DAEB",
"r. c #1EC2F4",
"t. c #16CEF5",
"y. c #1FC7FA",
"u. c #1BCDFB",
"i. c #0FD7F4",
"p. c #07DEF1",
"a. c #13D0F3",
"s. c #17D4FC",
"d. c #13D9FC",
"f. c #34DEED",
"g. c #20C7FA",
"h. c #06E3F4",
"j. c #06E6F9",
"k. c #0DE1FC",
"l. c #05EEFF",
"z. c #09E8FE",
"x. c #1BE5F7",
"c. c #33E6F3",
"v. c #50CCE7",
"b. c #4BCCF4",
"n. c #40E9F6",
"m. c #858D93",
"M. c #868D93",
"N. c #9B9297",
"B. c #93999F",
"V. c #A29A8D",
"C. c #B5AD9C",
"Z. c #BEB29C",
"A. c #979CA2",
"S. c #989DA1",
"D. c #929EAE",
"F. c #87A1AE",
"G. c #9FA5AA",
"H. c #8EA3B1",
"J. c #8FAEBE",
"K. c #97A6B5",
"L. c #99A4B5",
"P. c #93A8B5",
"I. c #9AACB7",
"U. c #A0A1A1",
"Y. c #B5B3A9",
"T. c #C2BCAD",
"R. c #C8BFAB",
"E. c #95AFC0",
"W. c #96B4C4",
"Q. c #94B7CA",
"!. c #95B9CD",
"~. c #85ECDB",
"^. c #DCDCDF",
/* pixels */
"W W W W W W W W W W W W W W W W W W W W W W W W W W W W W W -.y.y.m 6 6 6 6 6 6 6 r y.y.d.l.l.z 6 6 W W E W W W W W W W W W W W ",
"W W W W W W W W W W W W W W W W W W W W W W W W W W W W W W -.g.r.m 6 6 6 6 6 6 6 q y.y.d.l.l.z 6 6 W W W W W W W W W W W W W W ",
"W W W W W W W W W W W W W W W W E W W W W W W W W E W W E W -.g.g.m 6 6 6 6 6 6 6 q y.y.d.l.l.z 6 6 W W W W W W W W W W E W W W ",
"W W W W W W W W W W W W W W W W W W W W W W W W W j.j.j.r.r.,.r 8 7 6 6 6 6 6 R R R ! ! 2.l.l.h.h.h.7 8 8 W W W W W W W W W W W ",
"W W W W W W W W W W E W W W W W W W W W W W W W W l.l.l.y.y.<.6 i C 6 6 6 6 6 W W W W W 1.l.l.l.l.l.6 6 6 W W W W W W W W W W W ",
"W W W W W W W W W W W E W W W W W W W W W W W W E l.l.l.y.y.5.d ^.X.{ 6 6 6 6 W W W W W 1.l.l.l.l.l.6 6 6 W W W W W W W W W W W ",
"6.3.3.W W N x x x x x x x x x x v W W W W W 3.6.6.s.s.u.-.-.4.K ^.X...6 m M m W W W W W ~ ;.>.t.s.s.6 6 6 r x v W W W W W W W W ",
"y.y.r.W W m 6 6 6 6 6 6 6 6 6 6 8 W W W W W 8.y.y.y.y.y.E W W W i [ 6 6 E W W W W W W W W W W 7.y.y.6 6 6 6 6 r W W W W W W W W ",
"y.y.r.W W m 6 6 6 6 6 6 6 6 6 6 8 W W W W W 8.y.y.g.y.y.W W o.i i i d 6 W W W W W W W W W W W 7.y.y.6 6 6 6 6 q W W W W W W W W ",
"s.s.t.m m v 6 6 6 6 6 6 6 6 6 6 7 m M M M M 8.y.y.3.6.3.W W ) &.i #.[ x W W W W W W W W W W W <.6.6.Y Y Y N M R -.-.-.-.-.-.-.-.",
"l.l.j.6 6 6 6 6 6 6 6 6 6 6 6 6 6 6 6 6 6 6 7.y.y.W W W W W W W i o.W W W W W W W W W W W W W W W W l.l.l.g.g.y.y.y.y.y.y.y.y.y.",
"l.l.j.6 6 6 6 6 6 6 6 6 6 6 6 6 6 6 6 6 6 6 7.y.y.W W W W W W W i o.W W W W W W W W W W W W W W W W l.l.l.g.g.g.y.y.y.y.y.y.y.y.",
"j.h.e.8 8 8 6 6 6 6 6 6 6 6 6 6 6 q 8 r q r 6.r.r.W W W W W E W i o.W W W W W W W W W W W W W ! ~ W l.l.l.8.8.8.7.r.7.7.w.7.r.7.",
"6 6 8 y.y.-.6 6 6 6 6 6 6 6 6 6 x y.g.g.g.g.~ W W W W W W W W W i o.W W W W W W W W W W W W W p.l.l.y.g.r.6 6 6 6 6 6 6 6 6 6 6 ",
"6 6 8 y.y.-.6 6 6 6 6 6 6 6 6 6 x g.y.y.g.g.! W W W W W W W W W u o.W W W W W W W W W W W W W p.l.l.y.y.y.6 6 6 6 6 6 6 6 6 6 6 ",
"6 6 8 y.y.-.6 6 6 6 6 6 6 6 6 6 x y.y.y.y.y.~ W W W W W W W W W u o.W W W W W W W W W W W W W p.l.l.y.y.y.6 6 6 6 6 6 6 6 6 6 6 ",
"6 6 6 6 6 T l.l.l.l.l.y.y.y.g.y.6.6 6 v E W 8.y.y.W W W W W W W u o.W W W W W W W W W W 1.l.l.l.l.l.6 6 6 6 6 r W W W W W W W W ",
"6 6 6 6 6 Y l.l.l.l.l.y.y.y.g.g.6.6 6 m W W r.y.y.W W W W W W E u J P P W W W W W W W W 1.l.l.l.l.l.6 6 6 6 6 q W W W W W W W W ",
"6 6 6 6 6 T l.l.l.l.l.y.y.y.y.g.6.6 6 n W W r.y.y.W W W W O.%.%.u J L L W W W W W W W W 1.l.l.l.l.l.6 6 6 6 6 r W W W W W W W W ",
"R R R R R ;.l.l.U q q 8 q 8 q q c E R E W E r.y.y.W W W W L u u i o.W W W W W W W ~ r.r.r.u.y.n q q 6 6 6 R R R W W W W W W W W ",
"W W W W W ;.l.l.b 6 6 6 6 6 6 6 8 W W W W W r.y.y.W W W W W E E u i i i W W W W W ! y.y.y.y.y.x 6 6 6 6 6 W W W W W W W W W W W ",
"W W W W W ;.l.l.b 6 6 6 6 6 6 6 8 W W W W E r.y.y.W W W W @.K K i +.` _ W E W W W ! y.y.g.g.y.x 6 6 6 6 6 W W W W W W W W W W W ",
"W W ~ q.q.q.d.s.n 6 6 m M m M m N W W W W W 8.y.y.6.6.6.6.$.} } i 0.6.6.6.6.6.6.6.6.y.y.,.N N 8 6 6 M M m W W W W W W W W W W E ",
"W W W l.l.k.y.y.v 6 6 W W W W W W W W W W E r.y.y.y.y.y.g.g.y.y.i b.y.y.y.y.y.y.y.y.y.y.^ 6 6 6 6 6 W W W W W W W W W W W W W W ",
"W W W l.l.k.g.g.v 6 6 W W W W W W W W W W W g.g.g.g.g.g.y.y.y.g.u b.y.y.y.y.y.y.y.y.y.y.^ 6 6 6 6 6 W W W W W W W W W E W W W W ",
"W W W z.k.a.3.6.M x x W W W W W W W W W E @.} } } 9.9.I L } $.6.u 0.6.6.6.6.6.6.6.6.6.3.-.N N c x x W W W W W W W W W W W W W W ",
"W W ! y.y.3.W W W W W W W E W W W W W W E @. . . .| G H J H } W u o.W W W W W W W W W W ,.y.y.~ W W W W W W W W W W W W W W W W ",
"W W W y.y.3.W W W W W W W W W W W W W W E E g.g.g.H H 6 6 6 x W u o.W W W W W W W W W W ,.y.y.^ W W W E W W W W W W W W W W W W ",
"W W ! y.y.3.W W W W W W W W W W W W W W W W v.u i i i i i D r W i o.W E W W W W W W W W ,.7.8.-.! ! E W W W W W W W W W W R R R ",
"W W ! y.y.3.W W W W W W W W W W W W W W W W x.n.n.d d D F 9 r W i o.W E W W W W W W W W n 6 6 6.y.y.W W W W W W E W W W W 8 6 6 ",
"W W ! y.y.3.W W W W W W W W W W W W W W ` ` f.c.c.a a C C C Z ` t +.` ` ` Q W W W W W W n 6 6 6.y.y.W W W W W W W W W W W 7 6 6 ",
"W W W g.y.3.W W W W W W W W W W W W W W                                   _ W W W W W E n 6 6 6.y.y.W W W W W W W W W W W 6 6 6 ",
"W W ! y.y.3.W W W W W W W W W W W W O.  R.R.R.R.R.R.R.R.R.R.R.R.R.R.R.R.R.= < W W R 6 6 6 6 6 6.y.y.W W W W W W W W x 6 6 6 6 6 ",
"W W W y.y.3.W W W W W W W W W W W W O.  = = = = = = = = R., * * = = = = R.= < W W R 6 6 6 6 7 6.y.y.W W W W W W W W c 6 6 6 6 6 ",
"W W W y.y.3.E W W W W W W W W W W W O.  $ $ $ $ $ $ #   R.= . $ $ $ #   R.* < W W R 6 6 6 6 6 6.y.g.W W W W W W W W x 6 6 6 6 6 ",
"j.j.j.y.y.s.j.j.u.r.r.r.r.r.8.y.g.g.v.  ~.~.~.~.~.~.=.  R.= $ ~.~.~.=.  R.* < 8 8 r 7.7.7.r.7.k.l.l.r.r.r.r.r.r.r.r.i.h.h.h.h.h.",
"l.l.l.y.y.s.l.l.u.y.y.y.y.y.y.y.g.3 $ ~.~.~.~.~.~.~.=.  R.* $ ~.~.~.=.  R.= < 7 6 r y.y.y.y.y.z.l.l.y.y.y.y.y.y.g.g.k.l.l.l.l.l.",
"l.l.l.y.y.d.l.l.u.y.y.y.y.y.y.y.g.: $ ~.~.~.~.~.~.~.=.  R.= $ ~.~.~.=.  R.= < 7 6 r y.y.y.y.y.z.l.l.y.g.y.y.y.y.y.g.k.l.l.l.l.l.",
">.>.>.-.-.:.>.;.r.y.y.y.y.y.N N M : # =.=.=.=.=.=.=.]   Z.* # =.=.=.]   R.= < ,.,.,.y.y.,.N M Y Y Y N N N N N N N N Y Y Y Y Y Y ",
"W E W W W W W W 6.y.y.y.y.y.6 6 6 ;                     h o             R.= < y.y.y.y.y.^ 6 6 6 6 6 6 6 6 6 6 6 6 6 6 6 6 6 6 6 ",
"W W W W W W W W 7.y.y.g.y.y.6 6   y h h h h h h h h h h h h h h h h h h h o < y.y.y.y.y.~ 6 6 6 6 6 6 6 6 6 6 6 6 6 6 6 6 6 6 6 ",
"W W W W W W _ E.!.!.!.W.W.W.P.K.X.B.A.A.A.A.A.A.S.S.S.A.A.A.S.S.A.A.A.A.h o 2 s.s.a.,.,.R 6 6 6 6 6 6 6 6 6 6 6 6 6 6 6 6 6 6 6 ",
"W W W W W _ &.E.!.!.Q.P.H.P.D.H.X.B.S.L.S.A.S.S.S.S.S.B.S.L.L.S.A.A.A.L.h o 4 l.l.p.6 6 6 6 6 6 6 6 6 6 6 6 6 6 6 6 6 6 6 6 6 6 ",
"W W W W W J.E.W 6.y.y.6 6 6 6 6   y k L.h h h h h h h h h S.S.h h h k L.h o 4 l.l.p.6 6 6 6 6 6 6 6 6 6 6 6 6 6 6 6 6 6 6 6 6 6 ",
"W W W W W J.J.R 6.4                 @ L.                  X.X.      @ L.          v.q q 7 6 6 6 6 6 6 6 6 6 6 6 6 6 6 6 6 8 6 8 ",
"W W W W W.*.D 6 < l V.V.V.V.V.V.V.m.m.T.V.V.V.V.V.V.V.V.X.Y.Y.V.V.m.m.T.V.V.V.V.  %.y.y.^ P.I.I.I.I.I.I.I.I.I.I.I.I.I.I.6 R W E ",
"W W W W L.( e C o V.Z.Z.Z.Z.Z.Z.Z.G.G.T.Z.Z.Z.Z.Z.Z.Z.Z.B.C.Z.Z.Z.G.U.Z.Z.Z.Z.Z.  &.y.y.9.I.F.H.L.H.F.F.L.P.F.H.L.K.F.F.D / W W ",
"W W W W L.( F   h h h h h h h h h A.A.h h h h h h h h h h h h h h h h h h h h h   %.y.y.L.F 6 6 L.D 6 6 K.C 6 6 L.B 6 6 L.&.W W ",
"                                                                  y h h h h h h   +.g.g.L.9.W W L.o.7 6 L.C 6 8 K._ W W L.%.W W ",
"  5 0 0 0 p p p 0 p 0 0 p p 0 p 0 0 0 0 0 p 0 0 p 0 0 p 0 0 p 0 0 * o o o o o o   - 1 1 @ ; : : @ ; ; ; @ - ; ; @ : ; < @ ; : : ",
"1 5 p S S S S S S S S S S S S S S S S S S S S S S S S S S S S S S % O O O O O O O O O O X O O O O O O O O O O O O O O O O O X   ",
"W : O S S S S S S S S S S S S S S S S S S S S S S S S S S S S S S S S S S S S S S S S S S S S S S S S S S S S S S S S S S S 0   ",
"W W O.  g g g g g g g g g g g g g g g g g g g g g g g g g g g g g g g g g g g g g g g g g g g g g g g g g g g g g g g g g g f   ",
"W W / C + j N.N.N.N.N.N.N.N.N.N.N.N.N.N.N.N.N.N.N.N.N.N.N.N.N.N.N.N.N.N.N.N.N.N.N.N.N.N.N.N.N.N.N.N.N.N.N.N.N.N.N.N.N.N.N.> , ` ",
"W W E M : s X.D.D.D.D.D.D.D.D.D.D.D.D.D.D.D.D.D.D.D.D.D.D.D.D.D.D.D.D.D.D.D.D.D.D.D.D.D.D.D.D.D.D.D.D.D.D.D.D.D.D.D.D.D.D.@ ; E ",
"W W W W E 1 @ D.D.D.D.D.D.D.D.D.D.D.D.D.D.D.D.D.D.D.D.D.D.D.D.D.D.D.D.D.D.D.D.D.D.D.D.D.D.D.D.D.D.D.D.D.D.D.D.D.D.D.D.D.D.& : E ",
"W W W W W m F   D.D.D.D.D.D.D.D.D.D.D.D.D.D.D.D.D.D.D.D.D.D.D.D.D.D.D.D.D.D.D.D.D.D.D.D.D.D.D.D.D.D.D.D.D.D.D.D.D.D.D.D.  O.E E ",
"W W W W W N V [ @ X.D.D.D.D.D.D.D.D.D.D.D.D.D.D.D.D.D.D.D.D.D.D.D.D.D.D.D.D.D.D.D.D.D.D.D.D.D.D.D.D.D.D.D.D.D.D.D.D.D.D.  O.W W ",
"W W W W W W W W < d P P P P P P P P P P P P P P P P P P P P P P P P { P P P P P P P P P P P P P P P P P P P P P P P P { 2 o.W W ",
"W W W W W E W W E <                                                                                                     E W W W ",
"W W W W W E W W ! ! ! h.h.h.6 6 8 W W E R R R R E 6 6 6 6 6 6 6 6 M R R R R R 8.7.6.q q 8 6 6 A W W W W W W W W W W W W E W W W ",
"W W W W W W W W 7.y.y.6 6 6 6 6 8 W W v 6 6 6 6 6 6 6 6 6 6 6 6 6 6 6 6 6 6 6 6 6 w l.l.' 6 6 A W W W W W W W W W W W W W W W W ",
"W W W W W W W E 6.y.y.6 6 6 6 6 8 W W v 6 6 6 6 6 6 6 6 6 6 6 6 6 6 6 6 6 6 6 6 6 w l.l.' 6 6 A W W W W W W W E W W W W W W W W ",
"W W W W W W W E 7.y.y.6 6 6 6 6 8 W W v 6 6 6 6 6 6 6 6 6 6 6 6 6 6 6 6 6 6 6 6 6 w l.l.' 6 6 R W W W W W W W W W W W W W W W W "
};
