/* XPM */
static char *a2d8b97d6d29465dccd28bf7cc4c96066KpOuH9knHm4NBrh[] = {
/* columns rows colors chars-per-pixel */
"64 64 178 2 ",
"   c #3C1337",
".  c #7E0609",
"X  c #7E0A0E",
"o  c #640C1E",
"O  c #6C0B18",
"+  c #740914",
"@  c #750A14",
"#  c #7B0C13",
"$  c #6C121E",
"%  c #771017",
"&  c #75111B",
"*  c #7F2019",
"=  c #5B0E25",
"-  c #4B102E",
";  c #57152C",
":  c #461434",
">  c #5C1D32",
",  c #6D1422",
"<  c #6D1927",
"1  c #671A2B",
"2  c #5F2035",
"3  c #7B2E24",
"4  c #77332A",
"5  c #642534",
"6  c #6A3231",
"7  c #574F3E",
"8  c #665834",
"9  c #726230",
"0  c #1B1B4F",
"q  c #1D1E50",
"w  c #2B1946",
"e  c #1D2456",
"r  c #212355",
"t  c #262D54",
"y  c #252A5A",
"u  c #283155",
"i  c #353754",
"p  c #282E61",
"a  c #283863",
"s  c #2F3C65",
"d  c #21376B",
"f  c #233C6C",
"g  c #323D66",
"h  c #213D74",
"j  c #482A49",
"k  c #552C45",
"l  c #443D40",
"z  c #0E556B",
"x  c #0E586E",
"c  c #11586F",
"v  c #0F5D74",
"b  c #185B7B",
"n  c #324063",
"m  c #39456C",
"M  c #234276",
"N  c #2A4A75",
"B  c #24477A",
"V  c #234A7C",
"C  c #26527B",
"Z  c #0D6076",
"A  c #0E627A",
"S  c #10617A",
"D  c #1B627C",
"F  c #4D4C51",
"G  c #6F6A47",
"H  c #465E7D",
"J  c #486664",
"K  c #507466",
"L  c #850304",
"P  c #8A0404",
"I  c #840609",
"U  c #870A0A",
"Y  c #830A0C",
"T  c #821010",
"R  c #811A17",
"E  c #84413F",
"W  c #8B7D31",
"Q  c #7F8948",
"!  c #5D8A6C",
"~  c #A68E1D",
"^  c #B89B19",
"/  c #BDA31B",
"(  c #A6962D",
")  c #BCA821",
"_  c #DDBC0E",
"`  c #C3A71A",
"'  c #D3B414",
"]  c #D5BB12",
"[  c #DFC00A",
"{  c #E5C306",
"}  c #EAC406",
"|  c #ECCB05",
" . c #E3C209",
".. c #F2CB01",
"X. c #96AC4F",
"o. c #F79D59",
"O. c #EDA255",
"+. c #F5A254",
"@. c #FAA355",
"#. c #FEA954",
"$. c #F7A358",
"%. c #1F5587",
"&. c #244C84",
"*. c #265387",
"=. c #0D6D82",
"-. c #106680",
";. c #116A84",
":. c #116D89",
">. c #0C768B",
",. c #11718C",
"<. c #137695",
"1. c #137896",
"2. c #1C779E",
"3. c #137A99",
"4. c #286494",
"5. c #387391",
"6. c #237CAC",
"7. c #0B8094",
"8. c #0B869B",
"9. c #0B8DA1",
"0. c #1483A5",
"q. c #1586A9",
"w. c #1E84AF",
"e. c #1588AB",
"r. c #1E85B0",
"t. c #168EB2",
"y. c #1F89B6",
"u. c #1492B3",
"i. c #1793B9",
"p. c #208BB1",
"a. c #2889B2",
"s. c #09A9BC",
"d. c #46928F",
"f. c #6EA6AC",
"g. c #78ACB0",
"h. c #7DB3B5",
"j. c #189CC4",
"k. c #2896CE",
"l. c #0FACC9",
"z. c #18A4C6",
"x. c #10A9C6",
"c. c #1AA3CD",
"v. c #08BCCF",
"b. c #1AA7D2",
"n. c #1AAAD6",
"m. c #1BAEDB",
"M. c #0EB6D1",
"N. c #0EB9D4",
"B. c #1BB1DD",
"V. c #29A9D9",
"C. c #1CB3E1",
"Z. c #1DBCED",
"A. c #1EBFF0",
"S. c #26B6ED",
"D. c #29BEF0",
"F. c #09CADE",
"G. c #3CD4C5",
"H. c #0ACDE4",
"J. c #0FCFEC",
"K. c #07D9EB",
"L. c #1EC2F4",
"P. c #16CEF5",
"I. c #1FC7FA",
"U. c #19CDF9",
"Y. c #0FD7F4",
"T. c #07DEF1",
"R. c #17D4FC",
"E. c #13D9F8",
"W. c #21C6F9",
"Q. c #06E3F5",
"!. c #06E6F9",
"~. c #0DE1FC",
"^. c #05EEFF",
"/. c #84928E",
"(. c #82C7C2",
"). c #8ECEC8",
"_. c #9BCCC8",
"`. c #BEEDDF",
/* pixels */
"e.e.e.e.e.e.e.e.e.e.e.e.e.e.e.e.e.e.e.e.e.e.e.e.e.e.e.e.e.e.j.I.I.<.z z z z z z z S W.I.E.^.^.=.z z e.e.e.e.e.e.e.e.e.e.e.e.e.e.",
"e.e.e.e.e.e.e.e.e.e.e.e.e.e.e.e.e.e.e.e.e.e.e.e.e.e.e.e.e.e.j.I.I.<.z z z z z z z v I.I.E.^.^.=.z z e.e.e.e.e.e.e.e.e.e.e.e.e.e.",
"e.e.e.e.e.e.e.e.e.e.e.e.e.e.e.e.e.e.e.e.e.e.e.e.e.e.e.e.e.e.j.I.I.<.z z z z z z z A I.I.E.^.^.=.z z e.e.e.e.e.e.e.e.e.e.e.e.e.e.",
"e.e.e.e.e.e.e.e.e.e.e.e.e.e.e.e.e.e.e.e.e.e.e.e.e.!.!.!.L.L.c.v v z z z z z z 0.0.0.t.t.N.^.^.Q.Q.Q.x v v e.e.e.e.e.e.e.e.e.e.e.",
"e.e.e.e.e.e.e.e.e.e.e.e.e.e.e.e.e.e.e.e.e.e.e.e.e.^.^.^.I.I.b.z z z z z z z z e.e.e.e.e.M.^.^.^.^.^.z z z e.e.e.e.e.e.e.e.e.e.e.",
"e.e.e.e.e.e.e.e.e.e.e.e.e.e.e.e.e.e.e.e.e.e.e.e.e.^.^.^.I.I.b.z z z z z z z z e.e.e.e.e.M.^.^.^.^.^.z z z e.e.e.e.e.e.e.e.e.e.e.",
"C.C.m.e.e.3.-.-.-.-.-.-.-.-.-.-.:.e.e.e.e.e.B.C.B.R.R.U.j.j.i.<.<.Z z z <.<.<.e.e.e.e.e.u.l.x.P.R.R.z z z S -.:.e.e.e.e.e.e.e.e.",
"I.I.L.e.e.<.z z z z z z z z z z v e.e.e.e.e.Z.I.I.I.I.I.e.e.e.e.e.S z z e.e.e.e.e.e.e.e.e.e.e.Z.I.I.z z z z z A e.e.e.e.e.e.e.e.",
"I.I.L.e.e.<.z z z z z z z z z z v e.e.e.e.e.L.I.I.I.I.I.e.e.e.e.e.S c z e.e.e.e.e.e.e.e.e.e.e.Z.I.I.z z z z z S e.e.e.e.e.e.e.e.",
"R.R.R.<.<.:.z z z z z z z z z z v 1.1.1.1.1.Z.I.I.C.B.B.e.e.e.e.e.,.-.-.e.e.e.e.e.e.e.e.e.e.e.n.C.C.8.8.8.3.3.0.j.j.j.j.j.j.j.j.",
"^.^.!.z z z z z z z z z z z z z z z z z z z Z.I.I.e.e.e.e.e.e.e.e.e.e.e.e.e.e.e.e.e.e.e.e.e.e.e.e.e.^.^.^.I.I.I.L.I.I.I.I.I.I.I.",
"^.^.Q.z z z z z z z z z z z z z z z z x z z Z.I.I.e.e.e.e.e.e.e.e.e.e.e.e.e.e.e.e.e.e.e.e.e.e.e.e.e.^.^.^.I.I.W.W.I.I.I.I.I.I.I.",
"Q.Q.K.v v v z z z z z z z z z z z v v v v v B.I.L.e.e.e.e.e.e.e.e.e.e.e.e.e.e.e.e.e.e.e.e.e.e.t.u.t.^.^.^.Z.A.Z.Z.Z.L.Z.L.Z.L.Z.",
"z z v I.I.j.z z z z z z z z z z -.I.I.I.I.I.t.e.e.e.e.e.e.e.e.e.e.e.e.e.e.e.e.e.e.e.e.e.e.e.e.T.^.^.I.W.I.z z z z z z z z z z z ",
"z z v I.I.j.z z z z z z z z z z ;.I.I.I.I.I.t.e.e.e.e.e.e.e.e.e.e.e.e.e.e.e.e.e.e.e.e.e.e.e.e.T.^.^.I.I.I.z z z z z z z z z z z ",
"z z v I.I.j.z z z z z z z z z z ;.I.I.I.I.I.t.e.e.e.e.e.e.e.e.e.e.e.e.e.e.e.e.e.e.e.e.e.e.e.e.T.^.^.I.I.W.z z z z z z z z z z z ",
"z z z z z 9.^.^.^.^.^.I.I.I.I.I.C.x b 0 e.e.L.I.I.e.e.e.e.e.e.e.e.e.e.e.e.e.w.0 e.e.e.e.M.%.%.^.^.^.z z z z z S e.e.e.e.e.e.e.e.",
"z z z z z 8.^.^.^.^.^.I.I.I.I.I.C.V d g M r.L.I.I.e.e.e.e.e.e.e.e.e.r.h e.e.w.w M r.e.e.V e %.^.^.6.d d z z z S e.e.e.e.e.e.e.e.",
"z z z z z 9.^.^.^.^.^.W.I.W.I.W.k.j O < 0 w.L.I.I.e.e.e.e.e.e.e.e.e.w.0 w.e.d.F q r.q.X.W 0 %.^.G.Q 7 0 z z z S e.e.e.e.e.e.e.e.",
"0.0.0.0.0.l.^.^.7.Z Z v Z v Z v = Y I X 0 w.L.I.I.e.e.e.e.e.e.e.e.e.w.l l r.X.( 0 y.S./ ` r *.,.i W G 0 z 0.0.0.e.e.e.e.e.e.e.e.",
"e.e.e.e.e.l.^.^.>.z z z z z b + P P P + 0 w.A.I.I.e.e.e.e.e.e.e.e.e.r.l G q ^ ) 0 0 e ] ' r ^ ) 9 9 f z z 0.e.e.e.e.e.e.e.e.e.e.",
"e.e.e.e.e.l.^.^.>.z z z z B d L P P L # 0 w.L.I.I.e.e.e.e.e.e.e.M r.r.q } | | .._ [ [ ..| _ ..| ~ ~ f z z e.e.e.e.e.e.e.e.e.e.e.",
"e.e.e.H.H.J.E.R.,.z c <.<.h + L P P L I o 6.S.S.I.C.C.C.B.C.B.C.0 k.k.0 .... ... . . .........' 8 8 d 2.<.e.e.e.e.e.e.e.e.e.e.e.",
"e.e.t.^.^.~.I.I.:.z z q.q.M + L L P P L % w 0 0 I.I.I.I.I.I.I.I.0 8 {  .] } ] m m r r _ { _ ` 0 0 0 0 0 e.e.e.e.e.e.e.e.e.e.e.e.",
"e.e.t.^.^.~.I.I.,.x z e.e.M q 0 0 L L . L P P L 0 S.I.I.I.I.I.I.0 G | ..| ' ' 0 q 0 0 0 0 0 0 0 0 0 0 0 e.e.e.e.e.e.e.e.e.q.e.e.",
"e.e.e.~.~.P.C.C.<.S -.e.e.r.6.0 0 e r r P L P P 0 h 4.c.V V V &.0 r y ..| y q i +.$.$.$.$.$.$.$.o.t h w.e.e.e.e.e.e.e.e.e.e.e.e.",
"e.e.u.I.I.B.e.e.e.e.e.e.e.e.r.M 0 0 0 0 , I L L 0 ; > %.t u t t u w e / ) r q l +.@.@.+.$.$.$.@.+.i N w.e.e.e.e.e.e.e.e.e.e.e.e.",
"e.e.e.I.I.B.e.e.e.e.e.e.e.e.e.e.0 0 0 0 0 q - k + L > 0 ! ! ! ! ! u 0 0 0 q p ! 0 0 0 0 0 0 0 0 0 K K 0 e.e.e.e.e.e.e.e.e.e.e.e.",
"e.e.e.I.I.B.e.e.e.e.e.e.e.e.e.e.e.e.p.0 0 0 0 0 P L j 0 ! ! ! ! ! u 0 0 0 @.#.0 `.`.`.`.`.`.`.`.`.`._.0 e.e.e.e.e.e.e.e.e.0.0.0.",
"e.e.t.I.I.B.e.e.e.e.e.e.e.e.e.e.e.e.e.w.w.w.B.q L L 1 0 ! ! ! ! ! u u f.0 o.#.0 `._.h.m m h.).).m h.g.0 e.e.e.e.e.e.e.e.e.x z z ",
"e.e.t.I.I.B.e.e.e.e.e.e.e.r.w.w.w.w.w.e.e.e.J.*.2 P P , K K K K K u s (.w @.#.0 `.).f.0 0 f.(.(.0 f.f.0 e.e.e.e.e.e.e.e.e.x z z ",
"e.e.e.I.I.B.e.e.e.e.e.e.e.M 0 0 0 0 h e.e.e.Q.^.  P P # w 0 0 0 q q s (.0 o.#.0 `.).f.0 0 f.(.(.0 f.f.0 e.e.e.e.e.e.e.e.e.x z z ",
"e.e.t.I.I.B.e.e.e.e.e.e.q , I L Y 5 g 0 0 0   - - Y P P L e 0 0 0 0 j /.q o.@.q `.).(.(.m r 0 0 m m g 0 e.e.e.e.e.e.;.z z z z z ",
"e.e.t.I.I.B.e.e.e.e.e.e.0 # P U I ; ; & Y I U P Y P P P P I X o % P P , q t t 0 m g s s r J #.#.r r M w.e.e.e.e.e.e.-.z z z z z ",
"e.e.e.I.I.m.q.q.e.e.e.e.0 & U P I r O Y U P P P P U P P L L L . Y L L = 0 a s s 0 0 0 0 u J $.+.0 0 h w.e.e.e.e.e.e.;.z z z z z ",
"!.!.!.I.I.R.!.!.U.L.L.L.q , P P Y r ; 3 3 4 4 L L P L L # I O L L q u ! 0 f.(.(.0 0 0 0 ! g y p 0 0 0 0 L.L.L.L.L.L.Y.Q.Q.Q.Q.Q.",
"^.^.^.I.I.R.^.^.I.I.I.I.0 < I U I r q 0 0 0 u 4 R R L U   X T L I r 0 0 ! u 0 0 ! ! K 0 ! g y 0 0 0 u ! 0 S.I.I.I.W.~.^.^.^.^.^.",
"^.^.^.I.I.R.^.^.U.I.I.I.q # P P U r B D.D.D.a.u u u u u 0 Y L X $ r 0 0 u J O.O.u u t 0 u e q 0 0 0 0 u S.W.I.W.I.W.~.^.^.^.^.^.",
"x.x.x.j.j.x.x.x.L.I.I.I.0 L L L L e M t.z.j.p.B 0 0 0 0 0 6 X X k y r 0 0 J O.O.0 0 0 0 0 0 0 0 0 0 e M 3.3.3.3.3.3.8.8.8.8.8.8.",
"e.e.e.e.e.e.e.0.Z.I.I.I.P P P L q w h :.e.e.e.e.0 0 0 0 0 n 5 * . # g 0 0 0 0 0 0 0 0 0 0 0 0 - - 0 f z z z z z z z z z z z z z ",
"e.e.e.e.e.e.e.e.Z.I.D.0 P L P 0 0 0 f ,.e.e.e.e.e.e.e.e.W.*.0   T L &   e.e.e.I.I.I.I.I.i.f ; P L < g 0 z z z z z z z z z z z z ",
"e.e.e.e.e.e.e.e.C.I.D.0 P P L 0 0 0 M <.e.e.e.e.e.e.e.e.C.V.V.0 L P L I C z.x.E.R.P.c.c.B s & P P I g 0 z z z z z z z z z z z z ",
"e.e.e.e.e.e.e.e.Z.I.D.q P P L 0 0 M 4.e.e.e.e.e.e.e.e.e.e.y.5.X P L P I 0 E.^.^.^.T.z z f s > P L P g 0 z z z z z z z z z z z z ",
"e.e.e.e.e.e.e.e.Z.I.D.q P P O 0 0 y.0.e.e.e.e.e.e.e.e.e.e.V . L U Y * m 0 E.^.^.^.T.z z z f r I L # g 0 z z z z z z z z z z z z ",
"e.e.e.e.e.0.0.0.C.I.L.w , o 0 0 v e.e.e.e.e.e.e.e.e.e.e.e.M & T E H g 0 Q.!.!.!.!.K.v v v z D :   0 f z z z z z z z z z z v x c ",
"e.e.e.e.e.<.z z m.I.W.D r 0 f D v e.e.e.e.e.e.e.e.e.e.e.e.p.a.g s y N p.e.e.e.e.e.u.I.I.i.z c D D D D z z z z z z z z z z 0.e.e.",
"e.e.e.e.q.<.z z m.I.I.z M f C z Z e.e.e.e.e.e.e.e.e.e.e.e.e.p.B B B 4.e.e.e.e.e.e.t.W.I.i.z z z z z z z z z z z z z z z z e.e.e.",
"e.e.e.e.e.<.z z m.I.I.z z z z z v e.e.e.e.e.e.e.e.e.e.e.e.e.e.e.e.e.q.q.e.e.e.e.e.t.I.I.i.z z z z z z z z z z z z z z z z 0.e.e.",
"e.e.0.z z z z z m.I.I.z z z z z v e.e.e.e.e.e.e.e.e.e.e.e.e.e.e.e.e.e.e.e.e.e.e.e.t.I.I.n.e.e.e.q.e.z z z z z S e.e.e.e.e.e.e.e.",
"e.e.q.z z z z z m.I.I.z z z z z Z e.e.e.e.e.e.e.e.e.e.e.e.e.e.e.e.e.e.e.e.e.e.e.e.t.I.I.n.e.e.e.q.e.z z z z z S e.e.e.e.e.e.e.e.",
"e.e.q.z z z z z m.I.I.z z z z z v e.e.e.e.e.e.e.e.e.e.e.e.e.e.e.e.e.e.e.e.e.e.e.e.t.I.I.n.e.e.e.e.e.z z z z z Z e.e.e.e.e.e.e.e.",
"e.e.0.z z z z z m.I.I.z z z z z v e.e.e.e.e.e.e.e.e.e.e.e.e.e.e.e.e.e.e.e.e.e.L.L.L.I.W.n.e.e.e.e.e.0.0.0.z z S e.e.e.e.e.e.e.e.",
"e.e.0.z z z z z m.I.I.x z z z z v e.e.e.e.e.e.e.e.e.e.e.e.e.e.e.e.e.e.e.e.e.e.I.I.I.I.I.n.e.e.e.e.e.e.e.e.z z S e.e.e.e.e.e.e.e.",
"e.e.q.z z z z z m.I.I.x z z z z v e.e.e.e.e.e.e.e.e.e.e.e.e.e.e.e.e.e.e.e.e.e.I.I.I.I.I.n.e.e.e.e.e.e.e.e.z z Z e.e.e.e.e.e.e.e.",
"e.e.e.<.<.:.z z F.E.E.v.v.v.z z v e.e.e.e.e.e.e.e.e.e.e.S -.,.e.e.e.e.e.e.e.e.I.I.L.3.3.0.0.e.e.e.e.e.e.e.1.1.3.e.e.e.e.e.e.e.e.",
"e.e.e.e.e.<.z z H.^.^.^.^.^.z z v e.e.e.e.e.e.e.e.e.e.e.z z S e.e.e.e.e.e.e.e.I.I.Z.z z :.e.e.e.e.e.e.e.e.e.e.e.e.e.e.e.e.e.e.e.",
"e.e.e.e.e.<.z x F.^.^.^.^.^.z z v e.e.e.e.e.e.e.e.e.e.e.z z S e.e.e.e.e.e.e.e.I.I.Z.z z =.e.e.e.e.e.e.e.e.e.e.e.e.e.e.e.e.e.e.e.",
"e.e.e.e.e.3.-.A v.H.H.^.^.^.z z v e.e.e.e.e.e.e.e.<.<.<.z z A <.<.0.e.e.e.e.e.I.I.Z.z z S <.<.0.e.e.e.e.e.e.e.e.e.e.e.e.e.e.e.e.",
"e.e.e.e.e.e.e.e.e.e.e.^.^.^.z z v e.e.e.e.e.e.e.e.z z z z z z z z 3.e.e.e.e.e.I.I.Z.z z x z z 0.e.e.e.e.e.e.e.e.e.e.e.e.e.e.e.e.",
"q.e.e.e.e.e.e.e.e.e.e.^.^.^.z z v e.e.e.e.e.e.e.e.z z z z z z z z <.e.e.e.e.e.I.I.Z.z z z z z 0.e.e.e.e.e.e.e.e.e.e.e.e.e.e.e.e.",
"e.e.e.e.e.e.e.e.t.e.t.Q.Q.Q.z z v e.e.e.0.0.0.0.0.z z z z z z z z <.0.0.0.0.0.L.L.B.Z Z v z c 3.e.e.e.e.e.e.e.e.e.e.e.0.e.e.e.e.",
"e.e.e.e.e.e.e.e.Z.I.I.z z z z z v e.e.:.z z x z z z z z z z z z z z z z z z z z z A ^.^.s.z z 0.e.e.e.e.e.e.e.e.e.e.e.e.e.e.e.e.",
"e.e.e.e.e.e.e.q.Z.I.I.z z z z z v e.e.:.z z z z z z z z z z z z z z z z z z z z z A ^.^.s.z z 3.e.e.e.e.e.e.e.e.e.e.e.e.e.e.e.e.",
"e.e.e.e.e.e.e.0.Z.I.I.z z z z z v e.e.:.z z z z z z z z z z z z z z z z z z z z z A ^.^.s.z z 0.e.e.e.e.e.e.e.e.e.e.e.e.e.e.e.e."
};
