/* XPM */
static char *cd63de395cff40bba1888c82d53c86382ibVDXxKtKEiOKzh[] = {
/* columns rows colors chars-per-pixel */
"64 64 212 2 ",
"   c #422732",
".  c #442932",
"X  c #4B2C32",
"o  c #502E34",
"O  c #543234",
"+  c #5A3334",
"@  c #5E3538",
"#  c #643434",
"$  c #6E3531",
"%  c #673A36",
"&  c #653939",
"*  c #6C3C3A",
"=  c #733932",
"-  c #723E3A",
";  c #6D4435",
":  c #744934",
">  c #784238",
",  c #0E556B",
"<  c #0E586E",
"1  c #10566C",
"2  c #12586D",
"3  c #0F5C74",
"4  c #195D72",
"5  c #0D6076",
"6  c #0E627A",
"7  c #10617B",
"8  c #276678",
"9  c #794943",
"0  c #744E49",
"q  c #984E2B",
"w  c #834335",
"e  c #8D4337",
"r  c #934637",
"t  c #855337",
"y  c #8B543A",
"u  c #98543B",
"i  c #B9572D",
"p  c #A64631",
"a  c #A84732",
"s  c #AB4A32",
"d  c #BA4A31",
"f  c #B25434",
"g  c #AB6E35",
"h  c #C15933",
"j  c #D56C26",
"k  c #D86F26",
"l  c #DA7228",
"z  c #CB6D31",
"x  c #EB7826",
"c  c #F37823",
"v  c #EA7F35",
"b  c #8A5744",
"n  c #885848",
"m  c #835C58",
"M  c #8D685C",
"N  c #AE6453",
"B  c #B67F5F",
"V  c #836868",
"C  c #836F70",
"Z  c #B57D61",
"A  c #B97E62",
"S  c #D87641",
"D  c #CA8738",
"F  c #D48B32",
"G  c #D28A38",
"H  c #DD9934",
"J  c #D99838",
"K  c #F4862A",
"L  c #EE902F",
"P  c #F6912D",
"I  c #F89C2E",
"U  c #E38B36",
"Y  c #E69232",
"T  c #E39B35",
"R  c #EC9E35",
"E  c #F29E33",
"W  c #F39A39",
"Q  c #EAA53B",
"!  c #F8A634",
"~  c #F5AA35",
"^  c #FAAD35",
"/  c #F2A43B",
"(  c #F5AB3A",
")  c #FAB138",
"_  c #BC854D",
"`  c #B58062",
"'  c #BC866C",
"]  c #AB9177",
"[  c #BDA77C",
"{  c #D5884C",
"}  c #D69944",
"|  c #CC8F57",
" . c #D79359",
".. c #E28946",
"X. c #EF9B4E",
"o. c #D7A852",
"O. c #EBAA48",
"+. c #EDAA4B",
"@. c #EAB249",
"#. c #F7BA46",
"$. c #E7B856",
"%. c #C68963",
"&. c #CC936B",
"*. c #EC9F66",
"=. c #CEB56D",
"-. c #D2B669",
";. c #CFB270",
":. c #EDA671",
">. c #F8C44A",
",. c #F6CB54",
"<. c #FADB5B",
"1. c #FBE15F",
"2. c #D5CC7D",
"3. c #ECCF6D",
"4. c #F7D67C",
"5. c #FBE361",
"6. c #FCE176",
"7. c #0D6D82",
"8. c #106680",
"9. c #116984",
"0. c #116D89",
"q. c #0C768B",
"w. c #11718D",
"e. c #137695",
"r. c #137896",
"t. c #1B7996",
"y. c #137A99",
"u. c #317A8F",
"i. c #577F86",
"p. c #0B8094",
"a. c #0B869B",
"s. c #10879D",
"d. c #0B8DA1",
"f. c #1483A5",
"g. c #1586A9",
"h. c #1588AB",
"j. c #1A8AAD",
"k. c #168EB2",
"l. c #1592B5",
"z. c #1793B9",
"x. c #238CAC",
"c. c #2E8EAB",
"v. c #2691B0",
"b. c #2C93B2",
"n. c #3496B3",
"m. c #3A97B4",
"M. c #3C99B3",
"N. c #3D9DBA",
"B. c #09A9BC",
"V. c #6E8988",
"C. c #429DB5",
"Z. c #489AB4",
"A. c #47A1B6",
"S. c #6BA6AF",
"D. c #189CC4",
"F. c #0FACC9",
"G. c #15A1C5",
"H. c #10A9C6",
"J. c #1AA4CD",
"K. c #09BBCF",
"L. c #1AA7D2",
"P. c #1AAAD6",
"I. c #1BAEDB",
"U. c #0EB6D1",
"Y. c #0EB9D4",
"T. c #1BB0DD",
"R. c #26A8CF",
"E. c #1CB4E2",
"W. c #1DBCED",
"Q. c #1EBFF0",
"!. c #25B6E1",
"~. c #28B7E3",
"^. c #41BBDF",
"/. c #09CADE",
"(. c #0BCDE6",
"). c #11CDED",
"_. c #1EC2F4",
"`. c #1FC7FA",
"'. c #19CDF8",
"]. c #09DCF3",
"[. c #13D7FA",
"{. c #17D4FC",
"}. c #20C0EF",
"|. c #23C5F7",
" X c #23C8FA",
".X c #36C9F5",
"XX c #3BCBF7",
"oX c #3ACCF8",
"OX c #06E3F4",
"+X c #06E6F9",
"@X c #0DE1FD",
"#X c #05EEFF",
"$X c #0BE8FE",
"%X c #7DD1DB",
"&X c #43CDF5",
"*X c #7DD7E2",
"=X c #AD9C85",
"-X c #ADAF8D",
";X c #CFB689",
":X c #D6B793",
">X c #BBCA98",
",X c #9FCAB7",
"<X c #ADC8A5",
"1X c #D1CE84",
"2X c #CDD28A",
"3X c #D5CA94",
"4X c #E4CAA3",
"5X c #85CED3",
"6X c #FCEDD2",
"7X c #FBEAD8",
"8X c #FDF9ED",
"9X c #FDF8F1",
/* pixels */
"h.h.h.h.h.h.h.h.h.h.h.h.h.h.h.h.h.h.h.h.h.h.h.h.h.h.h.h.h.h.D.`.`.e., , , , , , , 7 `.`.[.#X#X7., , h.h.h.h.h.h.h.h.h.h.h.h.h.h.",
"h.h.h.h.h.h.h.h.h.h.h.h.h.h.h.h.h.h.h.h.h.h.h.h.h.h.h.h.h.h.D.`._.e., , , , , , , 6 `.`.[.#X#X7., , h.h.h.h.h.h.h.h.h.h.h.h.h.h.",
"h.h.h.h.h.h.h.h.h.h.h.h.h.h.h.h.h.h.h.h.h.h.h.h.h.h.h.h.h.h.D.`.`.e., , , , , , , 3 `.'.[.#X#X7., , h.h.h.h.h.h.h.h.h.h.h.f.h.h.",
"h.h.h.h.h.h.h.h.h.h.h.h.h.h.h.h.h.h.h.h.h.h.h.h.h.+X+X+X_._.J.3 3 , , , , , , h.f.f.k.k.Y.#X#XOXOXOX< 3 3 h.h.h.h.h.h.h.h.h.h.h.",
"h.h.h.h.h.h.h.h.h.h.h.h.h.h.h.h.h.h.h.h.h.h.h.h.h.#X#X#X`.`.L., , , , , , , , h.h.h.h.h.U.#X#X#X#X#X, , , h.h.h.h.h.h.h.h.h.h.h.",
"h.h.h.h.h.h.h.h.h.h.h.h.h.h.h.h.h.h.h.h.h.h.h.h.h.#X#X#X`.`.L., , , , , , , , h.h.h.h.h.U.#X#X#X#X#X, , , h.h.h.h.h.h.h.h.h.h.h.",
"E.T.T.h.h.y.8.8.8.8.8.8.6 8.8.8.9.h.h.h.h.h.I.E.E.{.{.{.D.D.z.e.e.3 , , e.e.e.h.h.h.h.h.l.F.H.'.{.{., , , 7 8.0.h.h.h.h.h.h.h.h.",
"`.`._.h.h.e., , , , , , , , , , 3 h.h.h.h.h.Q.`.`.`.`._.h.h.h.h.h.6 , , h.h.h.h.h.h.h.h.h.h.d.W.`.`., , , , , 7 h.h.h.h.h.h.h.h.",
"`.`._.h.h.e., , , , , , , , , , 3 h.h.h.h.h._.`.`.`.`.`.h.h.h.h.h.7 , , g.h.h.h.h.h.h.h.h.h.h.}.`.`., , , , , 3 h.h.h.h.h.h.h.h.",
"{.[.'.e.r.0., , , , , , , , , , 3 y.e.e.r.e.Q.`.`.E.E.E.h.h.h.h.h.w.8.9.g.h.h.h.h.h.h.h.h.h.h.P.E.E.a.a.a.y.y.f.D.D.D.D.D.D.D.D.",
"#X#X+X, , , , , , , , , , , , , , , , , , , W.`.`.h.h.h.h.j.x.b.b.x.v.h.h.h.h.h.h.h.h.h.h.h.h.h.h.h.#X#X#X`.`.`.`.`.`.`.`.`.`.`.",
"#X#X+X, , , , , , , , , , , , , , , , < , , W.`.`.h.h.j.v.S.-X3X2X2X<Xn.j.h.h.h.h.h.h.h.h.h.h.h.h.h.#X#X#X`.`.`.`.`.`.`.`.`.`.`.",
"OXOX].3 3 3 , , , , , , , , , , , 3 3 3 3 3 E._.Q.h.h.v.S.-X+.#.#.#.3.S.b.g.h.h.h.h.h.h.h.h.h.k.l.h.#X#X#XW.W.Q.W._.Q.W.}.W._.W.",
", , 3 _.`.D., , , , , , , , , , 8.`.`.`.`. Xk.h.h.h.h.m. .+.#.K K K X.3.C.h.h.h.h.h.h.h.h.g.g.].#X#X`.`.`., , , , , , , , , , , ",
", , 3 `.`.D., , , , , , , , , , 9.`.`.`.`.`.k.h.h.h.h.C...W ,.! ! P P 1.A.h.h.h.h.h.h.h.h.h.h.].#X#X`.`.`., , , , , , , , , , , ",
", , 3 `.`.D., , , , , , , , , , 9.`.`.`.`.`.k.h.h.h.h.M...W ,.) ) P P 5.A.h.h.h.h.h.h.h.h.h.h.OX#X#X`.`.`., , , , , , , , , , , ",
", , , , , d.#X#X#X#X#X`.`.`.`.`.E., , 0.h.h._.`.`.h.h.m...X.,.) ^ P P 5.C.h.h.h.h.h.h.h.U.#X#X#X#X#X, , , , , 7 h.h.h.h.h.h.h.h.",
", , , , , d.#X#X#X#X#X`.`.`.`.`.E., , e.h.h.Q.`.`.h.h.m.[ o.,.>.#./ +.2XN.h.h.h.h.h.h.h.U.#X#X#X#X#X, , , , , 7 h.h.h.h.h.h.h.h.",
", , , , < a.#X#X#X#X#X`.`.`.`.`.W., , 0.h.h._.`. Xh.h.h.v.S.&.2X2.2X>Xb.h.h.h.h.h.h.h.h.U.#X#X#X#X#X, , , , , 6 h.h.h.h.h.h.h.h.",
"f.f.f.f.f.F.#X#Xp.5 5 3 5 3 5 3 6 h.f.h.h.h._.`. Xh.h.h.y.z.v.v.b.n.v.h.h.h.h.h.h.k._._.`.'.`.0.5 5 , , , f.f.f.h.h.h.h.h.h.h.h.",
"h.h.h.h.h.F.#X#Xq., , , , , , , 3 h.h.h.h.h.Q.`.Q.k.h.h.h.h.h.h.h.h.h.h.h.h.h.h.h.k.`.`.`.`.`.8., , , , , h.h.h.h.h.h.h.h.h.h.h.",
"h.h.h.h.h.F.#X#Xq., , , , , , , 3 h.h.h.h.h._. X Xh.h.h.h.h.h.h.h.h.h.h.h.k.h.h.h.k.`.`.`.`.`.9., , , , , h.h.h.h.h.h.h.h.h.h.h.",
"h.h.h.(.(.).[.{.w., , e.r.r.r.e.y.h.h.h.h.g._. X X~.~.E.E.E.E.E.T.T.T.T.!.!.!.E.E.E.`.`.J.y.r.3 , , r.r.r.h.h.h.h.h.h.h.h.h.h.h.",
"h.h.k.#X#X@X`.`.0., , h.h.h.h.h.h.h.h.h.j.c.XX,X1X;.<X&XoX.X.XoXoXoXoXoX5X1X;.3X&XXX X`.z., , , , , h.h.h.h.h.h.h.h.h.h.h.h.h.h.",
"h.h.k.#X#X@X`.`.w., , h.h.h.h.h.h.h.h.h.b.0 C } ) ) J M V m m V V M m V _ ( ) Q M C &X Xz., , , , , h.h.h.h.h.h.h.h.h.h.h.h.f.h.",
"h.h.h.+X@X).E.E.e.7 8.h.h.h.h.h.h.h.h.h.n.N h ..( ) Y h d d d d d d d d l ( ) E h f ^.E.D.y.y.9.8.6 h.h.h.h.h.h.h.h.h.h.h.h.h.h.",
"h.h.k.`.`.T.h.h.h.h.h.h.h.h.h.h.h.h.h.b.M.0 # G >.>.J = # # # $ > w $ # g #.<.Q * & Z.x.J. X`.z.h.h.h.h.h.h.h.h.h.h.h.h.h.h.h.h.",
"h.h.h.`.`.T.h.h.h.h.h.h.h.h.h.h.h.h.n.;.o.s p o.5.5.$.f p p p p s s p p { 1.5.,.f a o.-XR. X`.z.h.h.h.h.h.h.h.h.h.h.h.h.h.h.h.h.",
"h.h.k.`.`.T.h.h.h.h.h.h.h.h.h.h.h.h.m.@.Q h f $.5.5.$.h d d d d d d d i } 1.1.,.h d ! -.R.Q.Q.D.k.k.h.h.h.h.h.h.h.h.h.h.h.f.h.f.",
"h.h.k.`.`.T.h.h.h.h.h.h.h.h.h.h.h.h.M.@.Q r e J >.>.T u e r e e e e e w _ #.>.@.u e T =.t., , E.`.`.h.h.h.h.h.h.h.h.h.h.h., , , ",
"h.h.k.`.`.T.h.h.h.h.h.h.h.h.h.h.h.h.M.@.R = # D ) ) J ; & - $ & # # # # g ~ ) Q ; $ J =.t., , E.`.`.h.h.h.h.h.h.h.h.h.h.h.< , , ",
"h.h.h.`.`.T.h.h.h.h.h.h.h.h.h.h.h.h.m.@.T > $ F ^ ^ F > $ w = $ $ $ $ = g ~ ^ H > = T =.u.1 , E.`.`.h.h.h.h.h.h.h.h.h.h.h., , , ",
"h.h.k.`.`.T.h.h.h.h.h.h.h.h.h.h.g.f.M.@.R f p H ^ ^ U i a s s p a a p p z ~ ) R f a Q -.8 , , E.`.`.h.h.h.h.h.h.h.h.8., , , , , ",
"h.h.h.`.`.I.h.h.h.h.h.h.h.h.h.g.j.C.S.@.R > = F E P l w - = = = > w w - f P I x > > T -.V.8 8 E.`.`.h.h.h.h.h.h.h.h.8., , , , , ",
"h.h.h.`.`.T.h.h.h.h.h.h.h.h.h.h.n.=.X.^ H O . i c c j % . .   . & * & O q c c k O X H ,.X.O.V.E.`.`.h.h.h.h.h.h.h.h.8., , , , , ",
"+X+X+X`.`.{.+X+X'._._._._.|._.|.&X3X6X) H + X i c c h + . .     . . . . q x c k + X T 6.8X4.%X$X#X#X_._._._._._._._.[.OXOXOXOXOX",
"#X#X#X`.`.[.#X#X'.`.`.`.`.`.`. XXX3X6X#.W F F L I I L F F F F F F F F F Y P I E } o.,.6.8X4.*X$X#X#X`.`.`.`.`.`.`.`.@X#X#X#X#X#X",
"#X#X#X`.`.[.#X#X'.`.`.`.`.`.`. XXX3X7XX.v v l k j j j k k k K K K l k k j j k j l K K :.8X4.*X@X#X#X`.`.`.`.`.`.`.`.@X#X#X#X#X#X",
"H.H.H.D.D.D.H.H.Q.`.`.`.`.`.y.y.M.;X9X9X .z O X X X X X X + J ) ! : X X X X X X % S S 7X8X3.S.s.a.a.y.y.y.y.y.y.y.y.a.a.a.a.a.a.",
"h.h.h.h.h.h.h.h.W.`.`.`.`. X1 2 8 %.*.*./ F O + & % + o & * H ) ~ t & X O & & # ; W X.*.:. .V., , , , , , , , , , , , , , , , , ",
"h.h.h.h.h.h.h.h.W._.`.`.`.`., , 4 8 V.v ! H O & - - & O - 9 _ >.| b & O @ - - * ; ) ^  .S.i.8 , , , , , , , , , , , , , , , , , ",
"h.h.h.h.h.h.h.h.W.`.`.J.J.G., , 5 8 u.U ! T * * - - @ o * * n X.n ; - & & - - * ; ( ) &.c.1 1 , , , , , , , , , , , , , , , , , ",
"h.h.h.h.h.h.h.h.W._.`.< , , , , 5 h.n.=XO.T > - - - & o 9 M 9 &.* n 9 # & - - * : ^ ) ] 4 1 , , , , , , , , , , , , , , , , , , ",
"h.h.h.h.h.h.h.h.W.`.`., , , , , 4 j.j.c.-.H - - - - * @ 9 ;XZ :XV =X0 o @ - - - y ^ ( u.1 , , , , , , , , , , , , , , , , , , , ",
"h.h.h.h.h.h.f.f.W._. X, , , , , 5 h.h.h.=.H o & - - ; * 0 :X4X4X4X:Xn o @ * ; - y ) @.u.3 , , , , , , , , , , , , , , , , < < < ",
"h.h.h.h.h.e., , I.`.`., , , , , 3 h.h.h.=.H o & - - * + 9 ' &.' &.' 9 O @ * * * : ^ $.&Xl., , , , , , , , , , , , , , , , f.h.h.",
"h.h.h.h.h.e., , I.`.`., , , , , 5 h.h.h.=.T : : y y t > b A Z 0 Z A b : > y y y y ) #.&Xz., , , , , , , , , , , , , , , 1 h.h.h.",
"h.h.h.h.h.e., , I.`.`., , , , 1 3 h.h.h.-.^ ^ ^ ) ~ ! ^ ( %.%.%.%.%.O.! ) ^ ~ ^ ^ ) $.&Xz., , , , , , , , , , , , , , , , h.h.h.",
"h.g.f., , , , , I.`.`.< , , , , 3 h.h.h.=.^ ! ) ) ! ) ^ ! ( ( ( ( ( ! ^ ^ ^ ! ^ ^ ~ $.&XP.h.h.h.f.h., , , , , 7 h.h.h.h.h.h.h.h.",
"h.h.f., , , , , I.`.`., , , , , 3 h.h.h.=XZ Z Z B ` B ` ` Z Z ` Z ` ` ` ` A ` B Z ' ] XXP.h.h.h.h.h., , , , , 7 h.h.h.h.h.h.h.h.",
"h.h.g., , , , , I.`.`., , , , , 3 h.h.h.v.n.m.n.m.M.m.n.M.M.n.m.m.n.M.M.n.m.m.n.n.N.XX XP.h.h.h.h.h., , , , , 7 h.h.h.h.h.h.h.h.",
"h.h.f., , , , , I.`.`., , , , , 3 h.h.h.h.k.h.h.h.h.h.h.h.h.h.j.h.h.h.h.h.h.h.|.}.|.`.`.P.h.h.h.h.h.f.f.f., , 6 h.h.h.h.h.h.h.h.",
"h.h.f., , , , , T.`.`., , , , , 3 h.h.h.h.h.h.h.h.h.h.h.h.h.h.h.h.h.h.h.h.h.h.`.`.`.`.`.P.h.h.h.h.h.h.h.h., , 3 h.h.h.h.h.h.h.h.",
"h.h.f., , , , , I.`.`.< , , , , 3 h.h.h.h.h.h.h.h.h.h.h.h.h.h.h.h.h.h.h.h.h.h.`.`.`.`.`.P.h.h.h.h.h.h.h.h., , 7 h.h.h.h.h.h.h.h.",
"h.h.h.e.r.9., , /.].@XK.K.K., , 3 h.h.h.h.h.h.h.h.h.h.h.7 8.w.h.h.h.h.h.h.h.h.`.`.Q.y.y.y.k.h.h.h.h.h.h.h.e.e.y.h.h.h.h.h.h.h.h.",
"h.h.h.h.h.e., , (.#X#X#X#X#X, , 3 h.h.h.h.h.h.h.h.h.h.h.1 , 7 h.h.h.h.h.h.h.h.`.`.W., , 0.h.h.h.h.h.h.h.h.h.h.h.h.h.h.h.h.h.h.h.",
"h.h.h.h.h.e., , /.#X#X#X#X#X, , 3 h.h.h.h.h.h.h.h.h.h.h., , 7 h.h.h.h.h.h.h.h.`.`.W., , 0.h.h.h.h.h.h.h.h.h.h.h.h.h.h.h.h.h.h.h.",
"h.h.h.h.h.y.8.6 K.(.(.#X#X#X, , 3 h.h.h.h.h.h.h.h.e.r.e., , 6 r.r.f.h.h.h.h.h.`.`.W., , 6 e.e.h.h.h.h.h.h.h.h.h.h.h.h.h.h.h.h.h.",
"h.h.h.h.h.h.h.h.h.h.h.#X#X#X, , 3 h.h.h.h.h.h.h.h., , , , , , , , y.h.h.h.h.h.`.`.W., , , , , g.h.h.g.h.h.h.h.h.h.h.h.h.h.h.h.h.",
"h.h.h.h.h.h.h.h.h.h.h.#X#X#X, , 3 h.h.h.h.h.h.h.h., , , , , , , , y.h.h.h.h.h.`.'.W., , , , , y.h.h.h.h.h.h.h.h.h.h.h.h.h.g.h.h.",
"h.h.h.h.h.h.h.h.k.h.k.OXOXOX, , 3 h.h.h.f.f.f.f.f., , , , , , , , r.f.f.f.f.f.W.W.E.5 5 3 , , f.h.h.h.h.h.h.h.h.h.h.h.h.h.h.h.h.",
"h.h.h.h.h.h.h.h.W.`.`.< , , , , 3 h.h.0., , , , , , , , , , , , , , , , , , , , , 6 #X#XB., , f.h.h.h.h.h.h.h.h.h.h.h.h.h.h.h.h.",
"h.h.h.h.h.h.h.h.W._.`., , , , , 3 h.h.0., , , , , , , , , , , , , , , , , , , , , 6 #X#XB., , y.h.h.h.h.h.h.h.h.h.h.h.h.h.h.h.h.",
"h.h.h.h.h.h.h.h.W.`._., , , , , 3 h.h.0., , , , , , , , , , , , , , , , , , , , , 6 #X#XB., , y.h.h.h.h.h.h.h.h.g.h.h.h.h.h.h.h."
};
