/* XPM */
static char *_882b86180a5449ec756fa943c65213fjSY7Mf1xDFN0GpEB[] = {
/* columns rows colors chars-per-pixel */
"64 64 129 2 ",
"   c #000000",
".  c #070B0C",
"X  c #0B0B0B",
"o  c gray9",
"O  c #1B1B1B",
"+  c #19262A",
"@  c #1A292E",
"#  c gray15",
"$  c #292929",
"%  c #20363C",
"&  c #20393F",
"*  c #363636",
"=  c #3B3B3B",
"-  c #223940",
";  c #22434D",
":  c #254A55",
">  c #244E5B",
",  c #24515E",
"<  c #3E5258",
"1  c #0E556B",
"2  c #0E586E",
"3  c #1E5C61",
"4  c #12566B",
"5  c #0F5C74",
"6  c #125E75",
"7  c #255766",
"8  c #285E6E",
"9  c #1D6267",
"0  c #0D6076",
"q  c #0E627A",
"w  c #10617A",
"e  c #266375",
"r  c #23667B",
"t  c #2B697D",
"y  c #424242",
"u  c #4D4D4D",
"i  c #5C5C5C",
"p  c #48656E",
"a  c #6C6C6C",
"s  c #777777",
"d  c #7D7D7D",
"f  c #0D6D82",
"g  c #106680",
"h  c #116A84",
"j  c #116D89",
"k  c #0C768B",
"l  c #13718C",
"z  c #137695",
"x  c #137896",
"c  c #137A99",
"v  c #246E84",
"b  c #297187",
"n  c #25768F",
"m  c #237A88",
"M  c #2C788F",
"N  c #2A7B94",
"B  c #0B8094",
"V  c #0B869B",
"C  c #27819D",
"Z  c #0B8DA1",
"A  c #1483A5",
"S  c #1586A9",
"D  c #1887A9",
"F  c #1588AB",
"G  c #168EB2",
"H  c #1492B3",
"J  c #1792B8",
"K  c #2897A9",
"L  c #09A9BC",
"P  c #189CC4",
"I  c #0FABC6",
"U  c #0FADCA",
"Y  c #10A9C6",
"T  c #1AA3CD",
"R  c #0CB6CE",
"E  c #08BCCF",
"W  c #12B4CE",
"Q  c #1AA7D2",
"!  c #1AAAD6",
"~  c #1BAEDB",
"^  c #0EB6D1",
"/  c #0EB9D4",
"(  c #1BB0DD",
")  c #31A7CC",
"_  c #2EB3DB",
"`  c #1CB3E1",
"'  c #1DBCED",
"]  c #1EBFF0",
"[  c #21BFEF",
"{  c #1FC3CF",
"}  c #0EC3DD",
"|  c #07CDDF",
" . c #1AD2DF",
".. c #0ACDE4",
"X. c #0FCFEC",
"o. c #1CC0EF",
"O. c #06DAEB",
"+. c #1EC2F4",
"@. c #16CEF5",
"#. c #19CAF5",
"$. c #1FC7FA",
"%. c #19CFFB",
"&. c #0FD7F4",
"*. c #07DEF2",
"=. c #13D0F3",
"-. c #17D4FC",
";. c #13D9FC",
":. c #06E3F4",
">. c #06E6F9",
",. c #0DE1FC",
"<. c #05EEFF",
"1. c #828282",
"2. c #8A8A8A",
"3. c #959595",
"4. c #9D9D9D",
"5. c #A4A4A4",
"6. c #AAABAB",
"7. c #B1B1B1",
"8. c #BCBCBC",
"9. c #C3C3C3",
"0. c #D5D5D5",
"q. c gray85",
"w. c gray92",
"e. c gray93",
"r. c gray95",
"t. c #F3F3F3",
"y. c #F9F9F9",
"u. c gray99",
"i. c white",
/* pixels */
"F F F F F F F F F F F F F F F F F F F F F F F F F F F F F F P $.$.z 1 1 1 1 1 1 1 q $.$.;.<.<.f 1 1 F F F F F F F F F F F F F F ",
"F F F F F F F F F F F F F F F F F F F F F F F F F F F F F F P $.$.z 1 1 1 1 1 1 1 6 $.$.;.<.<.f 1 1 F F F F F F F F F F F F F F ",
"F F F F F F F F F F F F F F F F F F F F F F F F F F F F F F P $.$.z 1 1 1 1 1 1 1 q $.$.;.<.<.f 1 1 F F F F F F F F F F F F F F ",
"F F F F F F F F F F F F F F F F F F F F F F F F F >.>.:.+.] T 6 5 1 1 1 1 1 1 A A A G G / <.<.:.:.:.1 5 5 F F F F F F F F F F F ",
"F F F F F F F F F F F F F F F F F F F F F F F F F <.<.<.$.$.Q 1 1 1 1 1 1 1 1 F F F F F ^ <.<.<.<.<.1 1 1 F F F F F F F F F F F ",
"F F F F F F F F F F F F F F F F F F F F F F F F F <.<.<.$.$.Q 1 1 1 1 1 1 1 1 F F F F F ^ <.<.<.<.<.1 1 1 F F F F F F F F F F F ",
"` ` ~ F F c g g q g g g g g g g j F F F F F ~ ( ` -.-.-.P P J x z 5 1 1 z z z F F F F F H I I @.-.-.1 1 1 g g j F F F F F F F F ",
"$.$.+.F F z 1 1 1 1 1 1 1 1 1 1 5 F F F F F +.$.$.$.$.$.F F F F S q 1 1 F F F F F F F F F F F ' $.$.1 1 1 1 1 6 F F F F F F F F ",
"$.$.+.F F z 1 1 1 1 1 1 1 1 1 1 5 F F F F F +.$.$.$.$.$.F F F S F w 5 1 F F F F F F F F F F F ' $.$.1 1 1 1 1 6 F F F F F F F F ",
"-.-.@.z x j 1 1 1 1 1 1 1 1 1 1 5 c z z z x ] $.$.` ( ` F F C N N v g w F F F F F F F F F F F ~ ` ` V V V c c A P P P P P P P P ",
"<.<.>.1 1 1 1 1 1 1 1 1 1 1 1 1 1 1 1 1 1 1 ' $.$.F F F F F ;     ; F F F F F F F F F F F F F F F F <.<.<.$.$.$.$.$.$.$.$.$.$.$.",
"<.<.>.1 1 1 1 1 1 1 1 1 1 1 1 1 1 1 1 1 1 1 ' $.$.F F F S . 6.t.    . D F F F F F F F F F F F F F F <.<.<.$.$.$.$.$.$.$.$.$.$.$.",
":.:.O.5 6 5 1 1 1 1 1 1 1 1 1 1 4 0 6 5 5 6 ' +.+.F F F D   7.i.      D F F F F F F F F F F F F G H <.<.<.' ] ] ' ] ] ' ' ' ] ] ",
"1 1 5 $.$.P 1 1 1 1 1 1 1 1 1 1 g $.$.$.$.$.G F F F F F D   7.i.      D F F F F F F F F F F F *.<.<.$.$.$.1 1 1 1 1 1 1 1 1 1 1 ",
"1 1 5 $.$.P 1 1 1 1 1 1 1 1 1 1 g $.$.$.$.$.G F F C ; ; ;   * u       ; ; ; C F F F F F F F F *.<.<.$.$.$.1 1 1 1 1 1 1 1 1 1 1 ",
"1 1 5 $.$.P 1 1 1 1 1 1 1 1 1 1 g $.$.$.$.$.G F F N                         N F F F F F F F F *.<.<.$.$.$.1 1 1 1 1 1 1 1 1 1 1 ",
"1 1 1 1 1 Z <.<.<.<.<.$.$.$.$.$.      l F F 7     u i.i.i.i.i.i.i.e.9.9.9.9.=     ; F F W       <.<.1 1 1 1 1 6 F F F F F F F F ",
"1 1 1 1 1 Z <.<.<.<.<.$.$.$._ )   o u t N N p u u 2.i.i.i.e.u.i.i.e.9.0.0.0.a = = < N N K u o   {  .1 1 1 1 1 q F F F F F F F F ",
"1 1 1 1 1 Z <.<.<.<.<.$.$.$.7     u i.X     7.i.i.i.i.i.i.9.w.i.i.e.9.i.i.i.0.9.9.2.    X i.u     9 1 1 1 1 1 6 F F F F F F F F ",
"A A A A A I <.<.B 0 0 5 0 5 -       X   X t.i.i.9.9.9.9.9.1.q.i.9.9.9.2.2.9.9.9.9.2.      X       % 1 1 1 A A F F F F F F F F F ",
"F F F F F U <.<.k 1 1 1 1 1 & .       X o i.i.u.9.9.9.9.9.1.0.u.9.9.9.2.2.8.9.8.9.2.X           . % 1 1 1 F F F F F F F F F F F ",
"F F F F F U <.<.k 1 1 1 1 1 1 1       t.i.i.0.9.i.i.i.2.1.9.9.9.9.9.9.9.9.9.3.1.9.9.9.X         1 1 1 1 1 F F F F F F F F F F F ",
"F F G ....X.-.-.l 1 1 x z z x z   * 7.i.i.i.t.e.0.0.0.7.6.9.9.9.9.9.9.9.9.9.3.1.3.5.9.X         1 1 z x z F F F F F F F F F F F ",
"F F F <.<.,.$.$.j 1 1 F F F F F   u i.i.i.i.i.i.9.9.9.9.9.9.9.9.9.9.9.9.9.9.3.1.2.3.9.          1 1 F F F F F F F F F F F F F F ",
"F F F <.<.,.$.$.j 1 1 F F F F F   u i.9.9.9.9.9.9.9.9.2.1.1.7.9.9.7.1.1.2.9.=   1.3.9.X         1 1 F F F F F F F F F F F F F F ",
"F F H ,.,.=.` ` x g g F F F C N u 1.i.9.9.7.8.9.9.8.6.1.1.1.5.7.6.5.1.1.1.6.a = 1.1.2.$ #       e r F F F F F F F F F F F F F F ",
"F F F $.$.( F F F F F F F F ;   i.i.i.9.8.1.6.9.9.7.1.1.1.d 1.2.2.2.1.d 1.1.6.9.1.i   d d         ; F F F F F F F F F F F F F F ",
"F F G $.$.( F F F F F F F F ;   i.w.9.i.u.i.0.9.1.3.9.9.8..       $ 1.1.1.1.1.1.1.1.d 1.d         ; F F F F F F F F F F F F F F ",
"F F H $.$.( F F F F F D D D ;   i.w.9.u.i.u.0.9.1.3.9.8.7.X X X X $ d 1.1.1.1.1.d 1.d 1.d         ; D D F F F F F F F F F A A A ",
"F F F $.$.( F F F F F .         9.9.9.u.y.1.6.9.1.1.d . X i.i.i.1.i   d 1.1.1.1.1.i   d d               . F F F F F F F F 2 1 1 ",
"F F F $.$.( F F F C ; 6.7.7.*   w.e.e.6.5.6.4.3.1.1.1.. X i.i.i.1.i   $ $ 1.y # 1.s a $ #         O i i i ; C F F F F F F 2 1 1 ",
"F F G $.$.( F F F N   t.i.i.u   i.i.i.2.2.9.3.1.1.1.1.  X i.i.i.1.i       1.$   1.1.d             # 1.1.d   N F F F F F F 2 1 1 ",
"F F F $.#.( F F F N             9.0.i.i.i.9.9.9.1.1.2.    1.1.1.            i 1.  $ 1.                      C F F F h 4 1 1 1 1 ",
"F F G $.$.( F F F C ;           9.0.i.w.w.9.9.9.1.1.1.$ $ i i i             i 1.$ * i $ $                 ; C D F F g 1 1 1 1 1 ",
"F F G $.$.( F F F F F .         9.0.i.9.9.9.9.9.1.1.1.1.1.                  i 1.1.i   d d               . F F F F F w 1 1 1 1 1 ",
">.>.:.$.$.-.>.>.#.+.+.[ [ [ ,   X y 9.9.9.9.3.2.1.1.1.1.1.d #                   1.i   X .         3 [ [ [ +.+.+.+.+.&.>.:.:.:.:.",
"<.<.<.$.$.-.<.<.%.$.$.$.$.$.7     * 9.9.9.9.3.1.d d 1.d d 2.#               X   d i               9 $.$.$.$.$.$.$.$.,.<.<.<.<.<.",
"<.<.<.$.$.-.<.<.%.$.$.$.$.$.7     $ 1.9.9.9.3.1.  # 2.    1.#               i 2.  $ 1.            9 $.$.$.$.$.$.$.$.,.<.<.<.<.<.",
"Y Y Y P P P Y I +.$.$.$.$.$.n b   X # 3.3.* a 1.i u # i i # u i i y       i * #   X $           m x c c c x x c c x V V V V V V ",
"F F F F F F F S ' $.$.$.$.$.1 1       d d   i 1.1.i   d d   i 1.1.i     X 1.$                   1 1 4 4 4 1 1 1 1 1 1 1 1 1 1 1 ",
"F F F F F F F F ' $.$.$.$.$.1 1           d #     $ 1.  X 2.#   1.1.1.      i 1.                1 1 1 1 1 1 1 1 1 1 1 1 1 1 1 1 ",
"F F F F F F F F ` $.$.T T T 1 1 % @       a O   $ * i     1.$   i i a       y i             + % 1 1 1 1 1 1 1 1 1 1 1 1 1 1 1 1 ",
"F F F F F F F F ' $.$.1 1 1 1 1 5 N             1.i       1.$                               7 1 1 1 1 1 1 1 1 1 1 1 1 1 1 1 1 1 ",
"F F F F F F F F ' $.$.1 1 1 1 1 5 N             X         X                                 7 1 1 1 1 1 1 1 1 1 1 1 1 1 1 1 1 1 ",
"F F F F F S A A ' $.$.1 1 1 1 1 6 M X                                                       7 4 1 1 1 1 1 1 1 1 1 1 1 1 1 2 2 2 ",
"F F F F F z 1 1 ~ $.$.1 1 1 1 1   $ 1.                                                    2.$   1 1 1 1 1 1 1 1 1 1 1 1 1 S F D ",
"F F F F F z 1 1 ~ $.$.1 1 1 1 1   X $                                                     $ X   1 1 1 1 1 1 1 1 1 1 1 1 1 S F F ",
"F F F F S z 1 1 ~ $.$.1 1 1 1 1                                                                 1 1 1 1 1 1 1 1 1 1 1 1 1 F F F ",
"F F A 1 1 1 1 1 ~ $.$.1 1 1 1 1 5 N     . G F F F N                         N F F G $..     N F F F 1 1 1 1 1 w F F F F F F F F ",
"F F S 1 1 1 1 1 ~ $.$.1 1 1 1 1 5 C ; ; : F F F F N ; ; ;       $ O   ; ; ; N F F G $.8 > ; C F F F 1 1 1 1 1 6 F F F F F F F F ",
"F F A 1 1 1 1 1 ~ $.$.1 1 1 1 1 5 F F F F F F F F F G F D       1.i   D G F F F F G $.$.! F F F F S 1 1 1 1 1 w F F F F F F F F ",
"F F S 1 1 1 1 1 ~ $.$.1 1 1 1 1 5 F F F F F F F F F F F D       1.i   F F F F +.+.$.$.$.! F F F F F A S A 1 1 w F F F F F F F F ",
"F F A 1 1 1 1 1 ( $.$.1 1 1 1 1 5 F F F F F F F F F F F F .     d i . F F F F $.$.$.$.$.! F F F F F F F F 1 1 0 F F F F F F F F ",
"F F S 1 1 1 1 1 ~ $.$.1 1 1 1 1 5 F F F F F F F F F F F F F ;     ; F F F F F $.$.$.$.$.! F F F F F F F F 1 1 w F F F F F F F F ",
"F F S z x h 1 1 } ,.,.E E / 1 1 5 F F F F F F F F F F S g g v N N N F F F F F $.$.] c c c G F F F F F F F z x c F F F F F F F F ",
"F F F F F z 1 1 | <.<.<.<.<.1 1 5 F F F F F F F F F F F 1 1 w F F F F F F F F $.$.' 1 1 j F F F F F F F F F F F F F F F F F F F ",
"F F F F F z 1 1 | <.<.<.<.<.1 1 5 F F F F F F F F F F F 1 1 q F F F F F F F F $.$.' 1 1 f F F F F F F F F F F F F F F F F F F F ",
"F F F F F c g q R ....<.<.<.1 1 5 F F F F F F F F z z z 1 1 q x c A F F F F F $.$.' 1 1 g x x F F F F F F F F F F F F F F F F F ",
"F F F F F F F F F F F <.<.<.1 1 5 F F F F F F F F 1 1 1 1 1 1 1 1 c F F F F F $.$.' 1 1 1 1 1 A F F F F F F F F F F F F F F F F ",
"F F F F F F F F F F F <.<.<.1 1 5 F F F F F F F F 1 1 1 1 1 1 1 1 c F F F F F $.$.' 1 1 1 1 1 c F F F F F F F F F F F F F F F F ",
"F F F F F F F F G H F :.:.:.1 1 5 F F F A F A A A 1 1 1 1 1 1 1 1 z A A A A A ] o.` 0 0 5 1 1 A F F F F F F F F F F F F F F F F ",
"F F F F F F F F ' $.$.2 1 1 1 1 5 F F j 1 1 1 1 1 1 1 1 1 1 1 1 1 1 1 1 1 1 1 1 1 q <.<.L 1 1 c F F F F F F S F F F F F F F F F ",
"F F F F F F F F ` $.$.1 1 1 1 1 5 F F j 1 1 1 1 1 1 1 1 1 1 1 1 1 1 1 1 1 1 1 1 1 q <.<.L 1 1 A S F F F F F F F F F F F F F F F ",
"F F F F F F F F ' $.$.1 1 1 1 1 5 F F f 1 1 1 1 1 1 1 1 1 1 1 1 1 1 1 1 1 1 1 1 1 q <.<.L 1 1 c F F F F F F F F F F F F F F F F "
};
