/* XPM */
static char *_483e6e331274c44ecc0a4766b985941FL2HvFhAzrTuyWPF[] = {
/* columns rows colors chars-per-pixel */
"64 64 132 2 ",
"   c #0E556B",
".  c #0E556C",
"X  c #0E566C",
"o  c #0E586F",
"O  c #0F5970",
"+  c #0F5A72",
"@  c #0F5B73",
"#  c #0F5D75",
"$  c #0F5D76",
"%  c #0D6176",
"&  c #0F6079",
"*  c #0D647A",
"=  c #106079",
"-  c #10637D",
";  c #10647D",
":  c #0D6D82",
">  c #106580",
",  c #106680",
"<  c #116882",
"1  c #116B86",
"2  c #116B87",
"3  c #116C88",
"4  c #126E8A",
"5  c #0C768B",
"6  c #10718B",
"7  c #12718E",
"8  c #127594",
"9  c #137694",
"0  c #137896",
"q  c #137897",
"w  c #137999",
"e  c #137A99",
"r  c #137B9B",
"t  c #147A99",
"y  c #147FA0",
"u  c #0B8094",
"i  c #0E829A",
"p  c #0B869B",
"a  c #0B879B",
"s  c #0C859B",
"d  c #0B8DA1",
"f  c #1480A1",
"g  c #1582A3",
"h  c #1483A5",
"j  c #1484A6",
"k  c #1586A9",
"l  c #1587A9",
"z  c #1587AA",
"x  c #1588AB",
"c  c #1589AC",
"v  c #148DAF",
"b  c #168CB0",
"n  c #168DB1",
"m  c #148FB1",
"M  c #168EB3",
"N  c #1490B1",
"B  c #1690B5",
"V  c #1397B7",
"C  c #1792B8",
"Z  c #1793B9",
"A  c #1596B9",
"S  c #1796BC",
"D  c #09A9BC",
"F  c #189AC1",
"G  c #189CC4",
"H  c #189CC5",
"J  c #189DC6",
"K  c #199DC6",
"L  c #0FABC6",
"P  c #0FADCA",
"I  c #15A1C5",
"U  c #10A8C6",
"Y  c #10A9C6",
"T  c #19A2CB",
"R  c #1AA2CC",
"E  c #1AA4CE",
"W  c #0CB6CE",
"Q  c #08BCCF",
"!  c #1AA7D1",
"~  c #1AAAD6",
"^  c #1BACD8",
"/  c #1BAFDB",
"(  c #0EB6D1",
")  c #0EB9D4",
"_  c #14B2D5",
"`  c #1BB0DD",
"'  c #1CB2DF",
"]  c #1CB3E0",
"[  c #1CB3E1",
"{  c #1DB7E6",
"}  c #1DB8E8",
"|  c #1DBAE9",
" . c #1DBCEC",
".. c #1EBEEF",
"X. c #1EBFF0",
"o. c #0EC3DD",
"O. c #07CDDF",
"+. c #0ACDE4",
"@. c #0FCFEC",
"#. c #1CC0EF",
"$. c #07D7EA",
"%. c #06DAEB",
"&. c #1EC1F2",
"*. c #1CC4F3",
"=. c #1EC2F4",
"-. c #1EC4F6",
";. c #16CDF3",
":. c #16CFF6",
">. c #17CFF7",
",. c #19CAF5",
"<. c #1FC6F8",
"1. c #1FC7FA",
"2. c #1DCAFA",
"3. c #19CFFB",
"4. c #06DFF0",
"5. c #07DEF2",
"6. c #0DDCF7",
"7. c #13D0F3",
"8. c #17D2FA",
"9. c #16D3FA",
"0. c #17D4FC",
"q. c #13D9FC",
"w. c #06E3F4",
"e. c #07E4F7",
"r. c #06E5F7",
"t. c #06E6F9",
"y. c #08E4F8",
"u. c #0FE0FD",
"i. c #0BE5FD",
"p. c #07EBFF",
"a. c #05EEFF",
"s. c #09E8FE",
/* pixels */
"x x x x z c z c z c z c z c z c x x x x x x x x x x x x x x F 1.1.0               = 1.1.q.a.a.:     x x x x x x x x x x x x x x ",
"x x x x c z c z c z c z c z c z x x x x x x x x x x x x x x F 1.1.q               = 1.1.q.a.a.:     x x x z x x x x x x x x x x ",
"x x x x z c z c z c z c z c z c x x x x x x x x c c x x x x H 1.1.9             o = 1.1.q.a.a.:     x x x z x x x x x x x x x x ",
"x x x x c z c z c z c z c z c z x x x x x x x x x y.y.e.<.X.E $ $             h h h b b ) a.a.w.w.w.@ o @ x x x x x x x x x x x ",
"x x c z c z z c c z c z z c z c x x x x x x x x x a.a.p.1.1.! X               x x x x x ( a.a.a.a.a.      x x x x x x x x x x x ",
"x x z c z c c z z c z z c z c z x x x x x x x x x a.a.a.1.1.!                 x x x x x ( a.a.a.a.a.      x z x x x x x x x x x ",
"[ [ / z c r , , , , , , , , , , 1 x x x x x ` [ ] 0.0.8.H H B 0 0 $     0 0 0 x x x x x V Y Y ;.8.0.      ; < 4 x x x x x x x x ",
"1.1.-.c z 8 .   . .             $ x x x x x =.1.1.1.1.1.c x x x x ;     x x x x x x x x x x x ..1.1.          = x x x x x x x x ",
"1.1.-.x x 8                     @ z z x x x X.1.1.1.1.1.x x x x x ;   . z x x x x x x x x x x ..1.2.          = x x x x x x x x ",
"0.8.8.0 0 1                     @ q 0 0 0 0 X.1.1.] ] ` x x x x x 6 ; ; x x x x x x x x x x x ^ ` ' s s a w w g G H G G H H H G ",
"a.a.r.                              X X     | 1.1.x x x x x x x x x c c x x x x x x x x x x x x x c a.a.a.2.1.1.1.1.1.1.1.1.1.1.",
"a.a.r.                            X X X X   | 1.1.x x x x x x x x x x x x x x x x x x x x x x x x x a.a.a.1.1.1.1.1.1.1.1.1.1.1.",
"w.w.%.$ $ @ .                   X $ $ $ $ = { =.=.x x x x x x x x x x x x x x x x x x x x x x b M N p.p.s.....#.............#...",
"    @ 1.1.H .                   , 1.1.1.1.1.b x x x x x x x x x x x x x x x x x x x x x x x x 5.a.a.1.1.1.                      ",
"    @ 1.1.H                     < 1.1.1.1.1.B c x x x x x x x x x x x x x x x x x x x x x x x 5.a.a.1.1.1.                      ",
"    @ 1.1.H                     , 1.1.1.1.1.b x x x x x x x x x x x x x x x x x x x x x x x x 5.a.a.1.1.1.                      ",
"          d a.a.a.a.a.2.2.1.1.1.[   . 7 x x &.2.1.x x x x x x x x x x x x x x x x x x x ( a.a.a.a.a.          = x x x x x x x x ",
"      .   d a.a.a.a.a.,.1.1.1.1.{ . . 7 x x &.1.1.x x x x x x x x x x x x x x x x x x x ( a.a.a.a.a.          = x x x x x x x x ",
"      . X d a.a.a.a.a.1.1.1.1.1.[ . . 7 x x &.1.1.x x x x x x x x x x x x x x x x x x x ( a.a.a.a.a.    X     = x x x x x x x x ",
"h h h h h Y a.a.e % $ $ $ $ $ $ ; h h c x x &.1.1.x x x x x x x x x x x x x x x c c <.X.<.2.1.7 % %     X h h h x x x x x x x x ",
"x x x x x L a.a.5               $ x x x x x &.1.1.c x x x x x x x x x x x x x x c B 1.1.1.1.1.<           x x x x x x x x x x x ",
"x x x x x W a.a.5               $ x x x x x &.1.1.x x x x x x z x x x x c c x x c b 1.1.1.2.1.<           x x x x x x x x x x x ",
"x x v +.+.@.0.0.6     q 0 w 0 0 w x x x x x &.1.1.[ ` [ [ [ [ [ ] ] ] ] ] ] ] ' ` { 1.1.E t w @     0 0 0 x x x x x x x x x x x ",
"x x N a.a.q.1.1.4     z z z x x x x x x x x &.1.1.1.1.1.1.1.1.1.1.1.1.1.1.1.1.1.1.1.1.1.B           x x x x x x x x x x x x x x ",
"x x v a.a.u.1.1.4     x x x x x x x x x x x &.1.1.1.1.1.1.1.1.1.1.1.1.1.1.1.1.1.1.1.1.1.Z X         x x x x x x x x x x x x x x ",
"x x v u.u.7.] ] 0 , , x x x x x x x x x x x &.1.1.T T T T R ! [ { ] [ [ [ [ / [ ` ] ] ] F w w 2 ; ; x x x x x x x x x x x x x x ",
"x c v 2.1.` x x x x x x x x x x x x x x x x &.1.1.          - x z c z c x x c c x x x x ! 1.1.Z c x x x x x x x x x x x x x x x ",
"x x x 1.1.` x x x x x x x x x x x x x x x x &.1.1.          - x z z c z x x x x x x x x E 1.1.B x x x x x x x x x x x x x x x x ",
"x x b 1.1.` x x x x x x x x x x x x x x x x *.2.2.          - x x x x x x x x x x x x x T ..#.S b b c c x x x x x x x x x z h h ",
"x x b 1.1.` x x x x x x x x x x x x x x x x e.a.a.          ; x x x x x x x x x x x x x 7     { 1.1.x x x x x x x x x x x X   o ",
"x x c 1.1.` x x x x x x x x x x x x x x x x e.a.a.          ; x x x x x x x x x x x x x 7     ] 1.1.x x x x x x x x x x x o     ",
"x x b 1.1.` x x x x x x x x x x x x x x x x e.a.a.          ; x x x x x x x x x x x x x 7     { 1.1.x x x x x x x x x x x o     ",
"x x b 1.2.` x x x x x x x x x x x x x x x x e.a.a.              . w x x x x x x x h         X { 1.1.x x x x x x x x 1           ",
"x c c 1.1.` x x x x x x x x x x x x x x x x e.a.a.              X w x x x x x x z h         X ` 1.1.x x x x x x x x *           ",
"x x c 1.1.` x x x x x x x x l x x x x x x x e.a.a.                w x x x l x x z h           { 1.1.x x c x x z x x ,           ",
"t.t.e.1.1.0.t.t.,.=.=.=.=.=.=.=.<.X.-.X.-.-.A N N ..........T     w x x x l x @ @ ; ..........i.s.a.=.X.X.<.X.<.=.=.q.e.w.w.w.w.",
"a.a.p.1.1.0.p.a.3.1.1.1.1.1.1.1.1.1.1.1.1.1.M c x 1.1.1.1.1.!   X w x x x x x X   = 1.1.1.1.1.s.a.a.1.1.1.1.1.1.1.1.u.a.a.a.a.a.",
"a.a.a.1.1.0.a.a.3.1.1.1.1.1.1.1.1.1.1.1.1.1.b c x 1.1.1.1.1.!   X w x x x x l     = 1.1.1.1.1.i.a.a.2.2.1.1.1.1.1.1.u.a.a.a.a.a.",
"Y Y Y H H I Y Y X.1.1.1.1.1.w w t w 0 b H H c x x H G H 1.1...E R B c x c l c R R ! 1.1.E w w s a s t t w w w t q r i a a s s s ",
"x x x x x x x c } 1.1.1.1.1.    X X X 7 x x x x x x x c 1.1.1.1.1.F l c x c l 1.1.1.1.2.Z .         .                           ",
"x x x x x x x x } 1.1.2.1.1.        X 7 x x x x x x x c 1.1.1.1.1.F x x x x x 2.1.1.1.1.Z                                       ",
"x x x x x x x x ..1.1.R R T     X , , 0 x x x x x x x c ] ] | 1.1._ Y Y Y Y L 0.8.8.R T y                                       ",
"x x x x x x x x } 1.1.X         $ x x x x x x x x x x x c x G 1.1.i.p.a.a.a.a.a.a.%.                                            ",
"x x x x x x x x } 1.1.X         $ x x x x x x x x x x x c x S 1.1.u.a.a.a.a.a.a.a.5.                                            ",
"x x x x x z h h | 1.1.X         $ x x x x x x x x x x x x x Z <.=.6.y.t.t.t.t.t.t.%.$ $ $                                 @ o o ",
"x x x x x 9   X ` 1.1.          $ x x x x x x x x x x x x x c x x c x x x c x x x b 1.1.B                                 h x x ",
"x x x x z 9     ^ 1.2.          $ x x x x x x x x x x x x x x x x x x x x x x x x B 1.1.Z X X                             x x x ",
"x x x z z q     ^ 1.1.          $ x x x x x x x x x x x x x x x x x x x x x x x x b 1.1.Z X                               h x x ",
"x x z           ^ 1.1.X X       = x x x x x x x x x x x x x x x c z c z c z c z c M 1.1.~ x x x x x           = x x x x x x x x ",
"x x h           ^ 1.1.  X       @ x x x x x x x x x x x x x x x z c z c z c z c x b 1.1.~ x x x x x           = x x x x x x x x ",
"c c h .         ` 1.1.          $ x x x x x x x x x x x x x x x c z c z c z z z x b 1.1.~ x x x x x     o     = x x x x x x x x ",
"x c h .         ` 1.1.          $ x x x x x x x x x x x x x x x z c z c z c z -.-.-.1.2.~ x x x x x h h h     = x x x x x x x x ",
"x x h o   .     ^ 1.1..         @ x x x x x x x x x x x x x x x c z c z z c z 1.1.1.1.1.~ x x x x x x x x     = x x x x x x x x ",
"x x h .         ` 1.1..         $ x x x x x x x x x x x x x x x z c z c c z c 1.1.1.1.1.~ z x x x x x x x   . = x x x x x x x x ",
"x x x 0 0 1     o.u.u.Q Q Q     $ x x x x x x x x x x x ; ; 6 x c z c z z c z 1.1.X.r 0 g z x x x x x x x 0 0 t x x x x x x x x ",
"x x x x x 9     O.a.a.a.a.a.    = x x x x x x x x x x l     ; x z c z c c z c 1.1. .  . 1 x x x x x x x x x x x x x x x x x x x ",
"x x x x z q   X O.a.a.a.a.a.    @ x x x x x x x x x x x     ; x c z x x x x x 1.1. .    1 x x x x x x x x x x x x x x x x x x x ",
"x x x x z w , , W +.+.a.a.a.    $ x x x x x x x x 8 0 0     = 0 q h x x x x x 1.1. .    ; q 0 z x x x x x x x x x x x x x x x x ",
"x x x x x x x x x x x a.a.a.    $ x x x x x x x x               . w x x x x x 1.1.|           y x x x x x x x x x x x x x x x x ",
"x x x x x x x x x x x a.a.a.    $ x x x x x x x x                 w x x x x x 1.1.#.          g x x x x x x x x x x x x x x x x ",
"x x x x x x x x b M c w.r.r.    $ x x h h h h h h               . 8 h h h h h &...` % % @     f x x x x x x x x x x x x x x x x ",
"x x x x x x x x | 1.2.          $ x x 1     o                       .             * a.a.D     f x x x x x x x x x x x x x x x x ",
"x x x x x x x c { 1.1.          $ x x 1                                           * a.a.D     f x x x x x x x x x x x x x x x x ",
"x x x x x x x c | 1.1.          $ x x 6                                           * a.a.D     g x x x x x x x x x x x x x x x x "
};
